<svg width="16" height="15" viewBox="0 0 16 15" fill="none" xmlns="http://www.w3.org/2000/svg">
<path d="M2.66699 0.0996094H13.333C13.9368 0.0996094 14.5163 0.2473 14.9736 0.510742L15.1611 0.630859C15.6415 0.968612 15.9004 1.41788 15.9004 1.875V13.125C15.9004 13.525 15.7023 13.9188 15.3311 14.2373L15.1611 14.3691C14.6804 14.707 14.0229 14.9004 13.333 14.9004H2.66699C2.06317 14.9004 1.4837 14.7527 1.02637 14.4893L0.838867 14.3691C0.358509 14.0314 0.0996094 13.5821 0.0996094 13.125V1.875L0.112305 1.7041C0.160317 1.364 0.350782 1.03566 0.668945 0.762695L0.838867 0.630859C1.31956 0.292966 1.97713 0.0996094 2.66699 0.0996094ZM2.66699 0.837891C2.29612 0.837891 1.93544 0.940442 1.66602 1.12988C1.39625 1.31958 1.2334 1.58621 1.2334 1.875V13.125C1.2334 13.4138 1.39625 13.6804 1.66602 13.8701C1.93544 14.0596 2.29612 14.1621 2.66699 14.1621H13.333C13.6575 14.1621 13.974 14.0832 14.2285 13.9365L14.334 13.8701C14.6038 13.6804 14.7666 13.4138 14.7666 13.125V1.875C14.7666 1.62232 14.6416 1.38705 14.4297 1.20508L14.334 1.12988C14.0646 0.940442 13.7039 0.837891 13.333 0.837891H2.66699Z" fill="black" stroke="white" stroke-width="0.2"/>
<mask id="path-2-inside-1_52_3970" fill="white">
<path d="M2.66406 2.34375C2.66406 2.21943 2.7343 2.1002 2.85932 2.01229C2.98435 1.92439 3.15392 1.875 3.33073 1.875H12.6641C12.8409 1.875 13.0104 1.92439 13.1355 2.01229C13.2605 2.1002 13.3307 2.21943 13.3307 2.34375V4.21875C13.3307 4.34307 13.2605 4.4623 13.1355 4.55021C13.0104 4.63811 12.8409 4.6875 12.6641 4.6875H3.33073C3.15392 4.6875 2.98435 4.63811 2.85932 4.55021C2.7343 4.4623 2.66406 4.34307 2.66406 4.21875V2.34375ZM2.66406 6.09375C2.66406 5.96943 2.7343 5.8502 2.85932 5.76229C2.98435 5.67439 3.15392 5.625 3.33073 5.625H4.66406C4.84087 5.625 5.01044 5.67439 5.13547 5.76229C5.26049 5.8502 5.33073 5.96943 5.33073 6.09375V7.03125C5.33073 7.15557 5.26049 7.2748 5.13547 7.36271C5.01044 7.45061 4.84087 7.5 4.66406 7.5H3.33073C3.15392 7.5 2.98435 7.45061 2.85932 7.36271C2.7343 7.2748 2.66406 7.15557 2.66406 7.03125V6.09375ZM2.66406 8.90625C2.66406 8.78193 2.7343 8.6627 2.85932 8.57479C2.98435 8.48689 3.15392 8.4375 3.33073 8.4375H4.66406C4.84087 8.4375 5.01044 8.48689 5.13547 8.57479C5.26049 8.6627 5.33073 8.78193 5.33073 8.90625V9.84375C5.33073 9.96807 5.26049 10.0873 5.13547 10.1752C5.01044 10.2631 4.84087 10.3125 4.66406 10.3125H3.33073C3.15392 10.3125 2.98435 10.2631 2.85932 10.1752C2.7343 10.0873 2.66406 9.96807 2.66406 9.84375V8.90625ZM2.66406 11.7188C2.66406 11.5944 2.7343 11.4752 2.85932 11.3873C2.98435 11.2994 3.15392 11.25 3.33073 11.25H4.66406C4.84087 11.25 5.01044 11.2994 5.13547 11.3873C5.26049 11.4752 5.33073 11.5944 5.33073 11.7188V12.6562C5.33073 12.7806 5.26049 12.8998 5.13547 12.9877C5.01044 13.0756 4.84087 13.125 4.66406 13.125H3.33073C3.15392 13.125 2.98435 13.0756 2.85932 12.9877C2.7343 12.8998 2.66406 12.7806 2.66406 12.6562V11.7188ZM6.66406 6.09375C6.66406 5.96943 6.7343 5.8502 6.85932 5.76229C6.98435 5.67439 7.15392 5.625 7.33073 5.625H8.66406C8.84087 5.625 9.01044 5.67439 9.13547 5.76229C9.26049 5.8502 9.33073 5.96943 9.33073 6.09375V7.03125C9.33073 7.15557 9.26049 7.2748 9.13547 7.36271C9.01044 7.45061 8.84087 7.5 8.66406 7.5H7.33073C7.15392 7.5 6.98435 7.45061 6.85932 7.36271C6.7343 7.2748 6.66406 7.15557 6.66406 7.03125V6.09375ZM6.66406 8.90625C6.66406 8.78193 6.7343 8.6627 6.85932 8.57479C6.98435 8.48689 7.15392 8.4375 7.33073 8.4375H8.66406C8.84087 8.4375 9.01044 8.48689 9.13547 8.57479C9.26049 8.6627 9.33073 8.78193 9.33073 8.90625V9.84375C9.33073 9.96807 9.26049 10.0873 9.13547 10.1752C9.01044 10.2631 8.84087 10.3125 8.66406 10.3125H7.33073C7.15392 10.3125 6.98435 10.2631 6.85932 10.1752C6.7343 10.0873 6.66406 9.96807 6.66406 9.84375V8.90625ZM6.66406 11.7188C6.66406 11.5944 6.7343 11.4752 6.85932 11.3873C6.98435 11.2994 7.15392 11.25 7.33073 11.25H8.66406C8.84087 11.25 9.01044 11.2994 9.13547 11.3873C9.26049 11.4752 9.33073 11.5944 9.33073 11.7188V12.6562C9.33073 12.7806 9.26049 12.8998 9.13547 12.9877C9.01044 13.0756 8.84087 13.125 8.66406 13.125H7.33073C7.15392 13.125 6.98435 13.0756 6.85932 12.9877C6.7343 12.8998 6.66406 12.7806 6.66406 12.6562V11.7188ZM10.6641 6.09375C10.6641 5.96943 10.7343 5.8502 10.8593 5.76229C10.9843 5.67439 11.1539 5.625 11.3307 5.625H12.6641C12.8409 5.625 13.0104 5.67439 13.1355 5.76229C13.2605 5.8502 13.3307 5.96943 13.3307 6.09375V7.03125C13.3307 7.15557 13.2605 7.2748 13.1355 7.36271C13.0104 7.45061 12.8409 7.5 12.6641 7.5H11.3307C11.1539 7.5 10.9843 7.45061 10.8593 7.36271C10.7343 7.2748 10.6641 7.15557 10.6641 7.03125V6.09375ZM10.6641 8.90625C10.6641 8.78193 10.7343 8.6627 10.8593 8.57479C10.9843 8.48689 11.1539 8.4375 11.3307 8.4375H12.6641C12.8409 8.4375 13.0104 8.48689 13.1355 8.57479C13.2605 8.6627 13.3307 8.78193 13.3307 8.90625V12.6562C13.3307 12.7806 13.2605 12.8998 13.1355 12.9877C13.0104 13.0756 12.8409 13.125 12.6641 13.125H11.3307C11.1539 13.125 10.9843 13.0756 10.8593 12.9877C10.7343 12.8998 10.6641 12.7806 10.6641 12.6562V8.90625Z"/>
</mask>
<path d="M2.66406 2.34375C2.66406 2.21943 2.7343 2.1002 2.85932 2.01229C2.98435 1.92439 3.15392 1.875 3.33073 1.875H12.6641C12.8409 1.875 13.0104 1.92439 13.1355 2.01229C13.2605 2.1002 13.3307 2.21943 13.3307 2.34375V4.21875C13.3307 4.34307 13.2605 4.4623 13.1355 4.55021C13.0104 4.63811 12.8409 4.6875 12.6641 4.6875H3.33073C3.15392 4.6875 2.98435 4.63811 2.85932 4.55021C2.7343 4.4623 2.66406 4.34307 2.66406 4.21875V2.34375ZM2.66406 6.09375C2.66406 5.96943 2.7343 5.8502 2.85932 5.76229C2.98435 5.67439 3.15392 5.625 3.33073 5.625H4.66406C4.84087 5.625 5.01044 5.67439 5.13547 5.76229C5.26049 5.8502 5.33073 5.96943 5.33073 6.09375V7.03125C5.33073 7.15557 5.26049 7.2748 5.13547 7.36271C5.01044 7.45061 4.84087 7.5 4.66406 7.5H3.33073C3.15392 7.5 2.98435 7.45061 2.85932 7.36271C2.7343 7.2748 2.66406 7.15557 2.66406 7.03125V6.09375ZM2.66406 8.90625C2.66406 8.78193 2.7343 8.6627 2.85932 8.57479C2.98435 8.48689 3.15392 8.4375 3.33073 8.4375H4.66406C4.84087 8.4375 5.01044 8.48689 5.13547 8.57479C5.26049 8.6627 5.33073 8.78193 5.33073 8.90625V9.84375C5.33073 9.96807 5.26049 10.0873 5.13547 10.1752C5.01044 10.2631 4.84087 10.3125 4.66406 10.3125H3.33073C3.15392 10.3125 2.98435 10.2631 2.85932 10.1752C2.7343 10.0873 2.66406 9.96807 2.66406 9.84375V8.90625ZM2.66406 11.7188C2.66406 11.5944 2.7343 11.4752 2.85932 11.3873C2.98435 11.2994 3.15392 11.25 3.33073 11.25H4.66406C4.84087 11.25 5.01044 11.2994 5.13547 11.3873C5.26049 11.4752 5.33073 11.5944 5.33073 11.7188V12.6562C5.33073 12.7806 5.26049 12.8998 5.13547 12.9877C5.01044 13.0756 4.84087 13.125 4.66406 13.125H3.33073C3.15392 13.125 2.98435 13.0756 2.85932 12.9877C2.7343 12.8998 2.66406 12.7806 2.66406 12.6562V11.7188ZM6.66406 6.09375C6.66406 5.96943 6.7343 5.8502 6.85932 5.76229C6.98435 5.67439 7.15392 5.625 7.33073 5.625H8.66406C8.84087 5.625 9.01044 5.67439 9.13547 5.76229C9.26049 5.8502 9.33073 5.96943 9.33073 6.09375V7.03125C9.33073 7.15557 9.26049 7.2748 9.13547 7.36271C9.01044 7.45061 8.84087 7.5 8.66406 7.5H7.33073C7.15392 7.5 6.98435 7.45061 6.85932 7.36271C6.7343 7.2748 6.66406 7.15557 6.66406 7.03125V6.09375ZM6.66406 8.90625C6.66406 8.78193 6.7343 8.6627 6.85932 8.57479C6.98435 8.48689 7.15392 8.4375 7.33073 8.4375H8.66406C8.84087 8.4375 9.01044 8.48689 9.13547 8.57479C9.26049 8.6627 9.33073 8.78193 9.33073 8.90625V9.84375C9.33073 9.96807 9.26049 10.0873 9.13547 10.1752C9.01044 10.2631 8.84087 10.3125 8.66406 10.3125H7.33073C7.15392 10.3125 6.98435 10.2631 6.85932 10.1752C6.7343 10.0873 6.66406 9.96807 6.66406 9.84375V8.90625ZM6.66406 11.7188C6.66406 11.5944 6.7343 11.4752 6.85932 11.3873C6.98435 11.2994 7.15392 11.25 7.33073 11.25H8.66406C8.84087 11.25 9.01044 11.2994 9.13547 11.3873C9.26049 11.4752 9.33073 11.5944 9.33073 11.7188V12.6562C9.33073 12.7806 9.26049 12.8998 9.13547 12.9877C9.01044 13.0756 8.84087 13.125 8.66406 13.125H7.33073C7.15392 13.125 6.98435 13.0756 6.85932 12.9877C6.7343 12.8998 6.66406 12.7806 6.66406 12.6562V11.7188ZM10.6641 6.09375C10.6641 5.96943 10.7343 5.8502 10.8593 5.76229C10.9843 5.67439 11.1539 5.625 11.3307 5.625H12.6641C12.8409 5.625 13.0104 5.67439 13.1355 5.76229C13.2605 5.8502 13.3307 5.96943 13.3307 6.09375V7.03125C13.3307 7.15557 13.2605 7.2748 13.1355 7.36271C13.0104 7.45061 12.8409 7.5 12.6641 7.5H11.3307C11.1539 7.5 10.9843 7.45061 10.8593 7.36271C10.7343 7.2748 10.6641 7.15557 10.6641 7.03125V6.09375ZM10.6641 8.90625C10.6641 8.78193 10.7343 8.6627 10.8593 8.57479C10.9843 8.48689 11.1539 8.4375 11.3307 8.4375H12.6641C12.8409 8.4375 13.0104 8.48689 13.1355 8.57479C13.2605 8.6627 13.3307 8.78193 13.3307 8.90625V12.6562C13.3307 12.7806 13.2605 12.8998 13.1355 12.9877C13.0104 13.0756 12.8409 13.125 12.6641 13.125H11.3307C11.1539 13.125 10.9843 13.0756 10.8593 12.9877C10.7343 12.8998 10.6641 12.7806 10.6641 12.6562V8.90625Z" fill="black" stroke="white" stroke-width="0.4" mask="url(#path-2-inside-1_52_3970)"/>
</svg>
