<svg width="16" height="16" viewBox="0 0 16 16" fill="none" xmlns="http://www.w3.org/2000/svg">
<path d="M10.6663 2H5.33293C3.86017 2 2.66626 3.19391 2.66626 4.66667V5.33333C4.50721 5.33333 5.99959 6.82573 5.99959 8.66667H9.99959C9.99959 6.82573 11.492 5.33333 13.3329 5.33333V4.66667C13.3329 3.19391 12.139 2 10.6663 2ZM13.3329 6.66667C12.2283 6.66667 11.3329 7.56207 11.3329 8.66667V10.6667H9.99959V10H5.99959V10.6667H4.66626V8.66667C4.66626 7.56207 3.77083 6.66667 2.66626 6.66667C1.56169 6.66667 0.66626 7.56207 0.66626 8.66667C0.66626 9.53747 1.2228 10.2783 1.99959 10.5529V14H3.33293V13.3333H12.6663V14H13.9996V10.5529C14.7764 10.2783 15.3329 9.53747 15.3329 8.66667C15.3329 7.56207 14.4375 6.66667 13.3329 6.66667Z" fill="#0C0C0C"/>
</svg>
