<svg width="15" height="16" viewBox="0 0 15 16" fill="none" xmlns="http://www.w3.org/2000/svg">
<mask id="path-1-inside-1_52_3935" fill="white">
<path d="M7.98474 1.45475C7.82408 1.44289 7.66305 1.43695 7.50195 1.43694V0.499512C7.6862 0.499602 7.87037 0.506481 8.05411 0.520135L7.98474 1.45475ZM9.86339 1.8766C9.56289 1.76063 9.25426 1.66695 8.94 1.59631L9.1453 0.681373C9.50528 0.761992 9.85714 0.868859 10.2009 1.00197L9.86339 1.8766ZM11.1477 2.54217C11.0137 2.45278 10.8764 2.36836 10.7362 2.28907L11.1983 1.4735C11.5189 1.65504 11.8256 1.85996 12.1161 2.08658L11.5396 2.82621C11.4125 2.72707 11.2817 2.63263 11.1477 2.54311V2.54217ZM12.867 4.22017C12.6815 3.95675 12.4769 3.70735 12.2548 3.47398L12.9335 2.82715C13.1873 3.09526 13.4207 3.37961 13.6338 3.68021L12.867 4.22017ZM13.5644 5.48758C13.503 5.33893 13.4361 5.19259 13.3638 5.04886L14.201 4.62702C14.3664 4.95617 14.5074 5.29707 14.6228 5.64694L13.7322 5.94036C13.6819 5.78743 13.6259 5.6364 13.5644 5.48758ZM14.0613 7.83772C14.0537 7.51556 14.0223 7.19441 13.9675 6.87685L14.8909 6.71749C14.9534 7.07996 14.9897 7.44556 14.9997 7.81428L14.0613 7.83772ZM13.9385 9.27949C13.9697 9.12075 13.995 8.96139 14.0144 8.8014L14.9453 8.9167C14.9001 9.28242 14.8281 9.64431 14.7297 9.99943L13.826 9.74914C13.8691 9.59478 13.9066 9.43823 13.9385 9.27949ZM13.046 11.5096C13.2185 11.2372 13.3704 10.9534 13.5016 10.6584L14.3585 11.0381C14.2085 11.3756 14.035 11.6999 13.8382 12.0112L13.046 11.5096ZM12.1423 12.6392C12.2567 12.5249 12.3661 12.4068 12.4704 12.2849L13.181 12.897C13.0607 13.0366 12.9353 13.1717 12.8051 13.302L12.1423 12.6392Z"/>
</mask>
<path d="M7.98474 1.45475C7.82408 1.44289 7.66305 1.43695 7.50195 1.43694V0.499512C7.6862 0.499602 7.87037 0.506481 8.05411 0.520135L7.98474 1.45475ZM9.86339 1.8766C9.56289 1.76063 9.25426 1.66695 8.94 1.59631L9.1453 0.681373C9.50528 0.761992 9.85714 0.868859 10.2009 1.00197L9.86339 1.8766ZM11.1477 2.54217C11.0137 2.45278 10.8764 2.36836 10.7362 2.28907L11.1983 1.4735C11.5189 1.65504 11.8256 1.85996 12.1161 2.08658L11.5396 2.82621C11.4125 2.72707 11.2817 2.63263 11.1477 2.54311V2.54217ZM12.867 4.22017C12.6815 3.95675 12.4769 3.70735 12.2548 3.47398L12.9335 2.82715C13.1873 3.09526 13.4207 3.37961 13.6338 3.68021L12.867 4.22017ZM13.5644 5.48758C13.503 5.33893 13.4361 5.19259 13.3638 5.04886L14.201 4.62702C14.3664 4.95617 14.5074 5.29707 14.6228 5.64694L13.7322 5.94036C13.6819 5.78743 13.6259 5.6364 13.5644 5.48758ZM14.0613 7.83772C14.0537 7.51556 14.0223 7.19441 13.9675 6.87685L14.8909 6.71749C14.9534 7.07996 14.9897 7.44556 14.9997 7.81428L14.0613 7.83772ZM13.9385 9.27949C13.9697 9.12075 13.995 8.96139 14.0144 8.8014L14.9453 8.9167C14.9001 9.28242 14.8281 9.64431 14.7297 9.99943L13.826 9.74914C13.8691 9.59478 13.9066 9.43823 13.9385 9.27949ZM13.046 11.5096C13.2185 11.2372 13.3704 10.9534 13.5016 10.6584L14.3585 11.0381C14.2085 11.3756 14.035 11.6999 13.8382 12.0112L13.046 11.5096ZM12.1423 12.6392C12.2567 12.5249 12.3661 12.4068 12.4704 12.2849L13.181 12.897C13.0607 13.0366 12.9353 13.1717 12.8051 13.302L12.1423 12.6392Z" fill="black"/>
<path d="M7.98474 1.45475L7.6166 6.44118L12.6011 6.80917L12.971 1.82485L7.98474 1.45475ZM7.50195 1.43694H2.50195V6.43666L7.50167 6.43694L7.50195 1.43694ZM7.50195 0.499512L7.50439 -4.50049L2.50195 -4.50293V0.499512H7.50195ZM8.05411 0.520135L13.0404 0.890235L13.4105 -4.09559L8.42467 -4.46611L8.05411 0.520135ZM9.86339 1.8766L8.06324 6.5413L12.7281 8.34153L14.5282 3.67655L9.86339 1.8766ZM8.94 1.59631L4.06132 0.501579L2.96701 5.3784L7.84341 6.47457L8.94 1.59631ZM9.1453 0.681373L10.238 -4.19777L5.36089 -5.29001L4.26662 -0.413354L9.1453 0.681373ZM10.2009 1.00197L14.8657 2.80193L16.6634 -1.85716L12.0065 -3.6606L10.2009 1.00197ZM11.1477 2.54217H16.1477V-0.13307L13.9221 -1.6175L11.1477 2.54217ZM10.7362 2.28907L6.38607 -0.176035L3.91853 4.17835L8.27535 6.64159L10.7362 2.28907ZM11.1983 1.4735L13.6622 -2.87726L9.31266 -5.3405L6.84823 -0.991599L11.1983 1.4735ZM12.1161 2.08658L16.0596 5.16047L19.132 1.21887L15.1919 -1.85544L12.1161 2.08658ZM11.5396 2.82621L8.46413 6.76852L12.408 9.84513L15.483 5.90011L11.5396 2.82621ZM11.1477 2.54311H6.1477V5.21644L8.37085 6.70113L11.1477 2.54311ZM12.867 4.22017L8.77859 7.09855L11.6572 11.1872L15.7456 8.30836L12.867 4.22017ZM12.2548 3.47398L8.80534 -0.145557L5.18834 3.30151L8.63287 6.92093L12.2548 3.47398ZM12.9335 2.82715L16.565 -0.60973L13.1162 -4.25388L9.48405 -0.792384L12.9335 2.82715ZM13.6338 3.68021L16.5125 7.7684L20.6138 4.88048L17.7127 0.788441L13.6338 3.68021ZM13.5644 5.48758L18.1857 3.5787L18.1849 3.57684L13.5644 5.48758ZM13.3638 5.04886L11.1138 0.583731L6.65366 2.83124L8.89619 7.2939L13.3638 5.04886ZM14.201 4.62702L18.6682 2.38115L16.4202 -2.09023L11.9509 0.161887L14.201 4.62702ZM14.6228 5.64694L16.1874 10.3958L20.9376 8.83082L19.3713 4.08109L14.6228 5.64694ZM13.7322 5.94036L8.98311 7.50423L10.5472 12.2541L15.2968 10.6893L13.7322 5.94036ZM14.0613 7.83772L9.06269 7.95583L9.18096 12.9612L14.1861 12.8362L14.0613 7.83772ZM13.9675 6.87685L13.1172 1.94969L8.19011 2.80003L9.04037 7.72713L13.9675 6.87685ZM14.8909 6.71749L19.8182 5.86794L18.9685 0.939836L14.0406 1.79033L14.8909 6.71749ZM14.9997 7.81428L15.1245 12.8127L20.1337 12.6876L19.9978 7.67874L14.9997 7.81428ZM13.9385 9.27949L18.8406 10.2638L18.8425 10.2545L18.8443 10.2452L13.9385 9.27949ZM14.0144 8.8014L14.629 3.83932L9.65341 3.22301L9.05068 8.20031L14.0144 8.8014ZM14.9453 8.9167L19.9076 9.52963L20.5203 4.56904L15.5599 3.95462L14.9453 8.9167ZM14.7297 9.99943L13.3951 14.818L18.2135 16.1526L19.5482 11.3342L14.7297 9.99943ZM13.826 9.74914L9.01037 8.40386L7.6621 13.2302L12.4914 14.5677L13.826 9.74914ZM13.046 11.5096L8.82138 8.83526L6.14716 13.0597L10.3714 15.7341L13.046 11.5096ZM13.5016 10.6584L15.5272 6.08711L10.9628 4.06465L8.93339 8.62593L13.5016 10.6584ZM14.3585 11.0381L18.9275 13.0688L20.9605 8.49461L16.384 6.46677L14.3585 11.0381ZM13.8382 12.0112L11.1636 16.2357L15.3898 18.9114L18.0638 14.684L13.8382 12.0112ZM12.1423 12.6392L8.60683 9.10367L5.07119 12.6392L8.60683 16.1748L12.1423 12.6392ZM12.4704 12.2849L15.7338 8.4967L11.9346 5.22386L8.67281 9.0325L12.4704 12.2849ZM13.181 12.897L16.9684 16.1614L20.2335 12.373L16.4444 9.10885L13.181 12.897ZM12.8051 13.302L9.26961 16.8376L12.8063 20.3742L16.3418 16.8363L12.8051 13.302ZM8.35288 -3.53168C8.06981 -3.55257 7.78608 -3.56304 7.50224 -3.56306L7.50167 6.43694C7.54002 6.43694 7.57836 6.43836 7.6166 6.44118L8.35288 -3.53168ZM12.502 1.43694V0.499512H2.50195V1.43694H12.502ZM7.49952 5.49951C7.56093 5.49954 7.62231 5.50183 7.68356 5.50639L8.42467 -4.46611C8.11843 -4.48887 7.81147 -4.50034 7.50439 -4.50049L7.49952 5.49951ZM3.06783 0.150035L2.99846 1.08465L12.971 1.82485L13.0404 0.890235L3.06783 0.150035ZM11.6635 -2.78811C11.1341 -2.99243 10.5903 -3.15749 10.0366 -3.28196L7.84341 6.47457C7.91823 6.49139 7.9917 6.51369 8.06324 6.5413L11.6635 -2.78811ZM13.8187 2.69103L14.024 1.7761L4.26662 -0.413354L4.06132 0.501579L13.8187 2.69103ZM8.0526 5.56051C8.17007 5.58682 8.2836 5.62133 8.39522 5.66455L12.0065 -3.6606C11.4307 -3.88361 10.8405 -4.06284 10.238 -4.19777L8.0526 5.56051ZM5.53609 -0.797976L5.19861 0.0766465L14.5282 3.67655L14.8657 2.80193L5.53609 -0.797976ZM13.9221 -1.6175C13.6859 -1.775 13.4441 -1.92375 13.197 -2.06345L8.27535 6.64159C8.30874 6.66047 8.34142 6.68056 8.37332 6.70184L13.9221 -1.6175ZM15.0862 4.75417L15.5484 3.9386L6.84823 -0.991599L6.38607 -0.176035L15.0862 4.75417ZM8.7344 5.82426C8.84125 5.88477 8.94349 5.95307 9.04029 6.0286L15.1919 -1.85544C14.7078 -2.23315 14.1965 -2.57469 13.6622 -2.87726L8.7344 5.82426ZM8.17258 -0.98731L7.59605 -0.247677L15.483 5.90011L16.0596 5.16047L8.17258 -0.98731ZM14.615 -1.11609C14.391 -1.29079 14.1607 -1.45717 13.9245 -1.61491L8.37085 6.70113C8.40276 6.72244 8.43388 6.74492 8.46413 6.76852L14.615 -1.11609ZM16.1477 2.54311V2.54217H6.1477V2.54311H16.1477ZM16.9554 1.3418C16.6286 0.87766 16.2681 0.438217 15.8768 0.0270323L8.63287 6.92093C8.68574 6.97648 8.73444 7.03585 8.77859 7.09855L16.9554 1.3418ZM15.7043 7.09352L16.383 6.44669L9.48405 -0.792384L8.80534 -0.145557L15.7043 7.09352ZM9.30203 6.26403C9.39428 6.3615 9.47814 6.46374 9.55489 6.57199L17.7127 0.788441C17.3633 0.295484 16.9803 -0.170988 16.565 -0.60973L9.30203 6.26403ZM10.7552 -0.407976L9.98832 0.131985L15.7456 8.30836L16.5125 7.7684L10.7552 -0.407976ZM18.1849 3.57684C18.0766 3.31493 17.9587 3.05708 17.8315 2.80383L8.89619 7.2939C8.91338 7.3281 8.9293 7.36294 8.94394 7.39832L18.1849 3.57684ZM15.6139 9.51399L16.451 9.09215L11.9509 0.161887L11.1138 0.583731L15.6139 9.51399ZM9.73375 6.87288C9.7889 6.98258 9.83589 7.09619 9.87434 7.2128L19.3713 4.08109C19.179 3.49794 18.944 2.92976 18.6682 2.38115L9.73375 6.87288ZM13.0582 0.898047L12.1676 1.19146L15.2968 10.6893L16.1874 10.3958L13.0582 0.898047ZM18.4814 4.37649C18.3926 4.10702 18.294 3.84091 18.1857 3.5787L8.94317 7.39646C8.9578 7.43188 8.97112 7.46783 8.98311 7.50423L18.4814 4.37649ZM19.0599 7.7196C19.0465 7.15198 18.9913 6.58611 18.8947 6.02658L9.04037 7.72713C9.05342 7.80271 9.06087 7.87915 9.06269 7.95583L19.0599 7.7196ZM14.8179 11.804L15.7413 11.6446L14.0406 1.79033L13.1172 1.94969L14.8179 11.804ZM9.96364 7.56704C9.98533 7.69285 9.99799 7.81982 10.0015 7.94983L19.9978 7.67874C19.9814 7.0713 19.9215 6.46707 19.8182 5.86794L9.96364 7.56704ZM14.8748 2.81584L13.9365 2.83928L14.1861 12.8362L15.1245 12.8127L14.8748 2.81584ZM18.8443 10.2452C18.8993 9.96615 18.9439 9.68516 18.9782 9.40249L9.05068 8.20031C9.04616 8.23761 9.0402 8.27535 9.03264 8.31375L18.8443 10.2452ZM13.3998 13.7635L14.3307 13.8788L15.5599 3.95462L14.629 3.83932L13.3998 13.7635ZM9.98302 8.30378C9.96796 8.42566 9.94394 8.54627 9.91116 8.66462L19.5482 11.3342C19.7122 10.7423 19.8323 10.1392 19.9076 9.52963L9.98302 8.30378ZM16.0643 5.18084L15.1606 4.93054L12.4914 14.5677L13.3951 14.818L16.0643 5.18084ZM18.6416 11.0944C18.7184 10.8196 18.7846 10.5427 18.8406 10.2638L9.03633 8.29518C9.02858 8.3338 9.01985 8.36991 9.01037 8.40386L18.6416 11.0944ZM17.2707 14.184C17.5733 13.706 17.84 13.2077 18.0699 12.691L8.93339 8.62593C8.90081 8.69914 8.86375 8.76833 8.82138 8.83526L17.2707 14.184ZM11.4761 15.2298L12.3329 15.6094L16.384 6.46677L15.5272 6.08711L11.4761 15.2298ZM9.78942 9.00738C9.73787 9.12337 9.67914 9.23306 9.61257 9.33828L18.0638 14.684C18.3909 14.1668 18.6791 13.6278 18.9275 13.0688L9.78942 9.00738ZM16.5128 7.78666L15.7207 7.28514L10.3714 15.7341L11.1636 16.2357L16.5128 7.78666ZM15.6778 16.1748C15.8825 15.9702 16.0793 15.7577 16.2681 15.5373L8.67281 9.0325C8.65282 9.05585 8.63095 9.07955 8.60683 9.10367L15.6778 16.1748ZM9.20706 16.0731L9.91765 16.6852L16.4444 9.10885L15.7338 8.4967L9.20706 16.0731ZM9.39366 9.6327C9.35358 9.67921 9.31179 9.72423 9.26837 9.76767L16.3418 16.8363C16.5589 16.6191 16.7679 16.394 16.9684 16.1614L9.39366 9.6327ZM16.3406 9.76643L15.6778 9.10367L8.60683 16.1748L9.26961 16.8376L16.3406 9.76643Z" fill="black" mask="url(#path-1-inside-1_52_3935)"/>
<mask id="path-3-inside-2_52_3935" fill="white">
<path d="M7.50253 1.43694C6.42341 1.43702 5.36097 1.70322 4.4093 2.21195C3.45763 2.72069 2.64611 3.45626 2.04662 4.35352C1.44713 5.25078 1.07818 6.28203 0.972434 7.35594C0.86669 8.42984 1.02742 9.51325 1.44039 10.5102C1.85336 11.5071 2.50583 12.3869 3.33999 13.0714C4.17416 13.756 5.16428 14.2243 6.22266 14.4349C7.28104 14.6454 8.37501 14.5917 9.40767 14.2785C10.4403 13.9653 11.3798 13.4022 12.1429 12.6392L12.8057 13.302C11.9336 14.1745 10.8598 14.8185 9.67933 15.1769C8.49888 15.5352 7.24826 15.5969 6.03829 15.3564C4.82832 15.1159 3.69635 14.5806 2.74267 13.7981C1.789 13.0156 1.04306 12.0099 0.570962 10.8702C0.098861 9.73049 -0.0848297 8.49193 0.0361648 7.26426C0.157159 6.03659 0.579104 4.85772 1.26461 3.83209C1.95012 2.80647 2.87803 1.96576 3.96612 1.38445C5.05421 0.803141 6.26889 0.499185 7.50253 0.499512V1.43694Z"/>
</mask>
<path d="M7.50253 1.43694C6.42341 1.43702 5.36097 1.70322 4.4093 2.21195C3.45763 2.72069 2.64611 3.45626 2.04662 4.35352C1.44713 5.25078 1.07818 6.28203 0.972434 7.35594C0.86669 8.42984 1.02742 9.51325 1.44039 10.5102C1.85336 11.5071 2.50583 12.3869 3.33999 13.0714C4.17416 13.756 5.16428 14.2243 6.22266 14.4349C7.28104 14.6454 8.37501 14.5917 9.40767 14.2785C10.4403 13.9653 11.3798 13.4022 12.1429 12.6392L12.8057 13.302C11.9336 14.1745 10.8598 14.8185 9.67933 15.1769C8.49888 15.5352 7.24826 15.5969 6.03829 15.3564C4.82832 15.1159 3.69635 14.5806 2.74267 13.7981C1.789 13.0156 1.04306 12.0099 0.570962 10.8702C0.098861 9.73049 -0.0848297 8.49193 0.0361648 7.26426C0.157159 6.03659 0.579104 4.85772 1.26461 3.83209C1.95012 2.80647 2.87803 1.96576 3.96612 1.38445C5.05421 0.803141 6.26889 0.499185 7.50253 0.499512V1.43694Z" fill="black"/>
<path d="M7.50253 1.43694L7.50289 6.43694L12.5025 6.43658V1.43694H7.50253ZM12.1429 12.6392L15.6784 9.10367L12.1431 5.56842L8.60759 9.10349L12.1429 12.6392ZM12.8057 13.302L16.3422 16.8366L19.8758 13.301L16.3412 9.76643L12.8057 13.302ZM7.50253 0.499512H12.5025V-4.49916L7.50386 -4.50049L7.50253 0.499512ZM7.50217 -3.56306C5.60084 -3.56292 3.72888 -3.0939 2.0521 -2.19754L6.76649 6.62145C6.99305 6.50034 7.24598 6.43696 7.50289 6.43694L7.50217 -3.56306ZM2.0521 -2.19754C0.37532 -1.30118 -1.05454 -0.00513417 -2.11081 1.5758L6.20406 7.13124C6.34676 6.91766 6.53994 6.74256 6.76649 6.62145L2.0521 -2.19754ZM-2.11081 1.5758C-3.16709 3.15674 -3.81718 4.97378 -4.0035 6.86597L5.94837 7.8459C5.97354 7.59029 6.06136 7.34482 6.20406 7.13124L-2.11081 1.5758ZM-4.0035 6.86597C-4.18982 8.75816 -3.90661 10.6671 -3.17897 12.4237L6.05976 8.5967C5.96146 8.35939 5.9232 8.10152 5.94837 7.8459L-4.0035 6.86597ZM-3.17897 12.4237C-2.45133 14.1803 -1.30171 15.7303 0.168048 16.9365L6.51194 9.20637C6.31337 9.04341 6.15806 8.834 6.05976 8.5967L-3.17897 12.4237ZM0.168048 16.9365C1.63781 18.1427 3.38234 18.9678 5.24713 19.3388L7.19819 9.53095C6.94622 9.48082 6.71051 9.36934 6.51194 9.20637L0.168048 16.9365ZM5.24713 19.3388C7.11192 19.7097 9.03941 19.6151 10.8589 19.0632L7.95645 9.49372C7.7106 9.56828 7.45016 9.58107 7.19819 9.53095L5.24713 19.3388ZM10.8589 19.0632C12.6784 18.5114 14.3337 17.5194 15.6782 16.175L8.60759 9.10349C8.42594 9.28512 8.20229 9.41916 7.95645 9.49372L10.8589 19.0632ZM8.60741 16.1748L9.27019 16.8376L16.3412 9.76643L15.6784 9.10367L8.60741 16.1748ZM9.26921 9.76741C8.97848 10.0583 8.62048 10.273 8.22693 10.3925L11.1317 19.9613C13.0991 19.364 14.8887 18.2908 16.3422 16.8366L9.26921 9.76741ZM8.22693 10.3925C7.83338 10.5119 7.41643 10.5325 7.01303 10.4523L5.06355 20.2604C7.08009 20.6612 9.16438 20.5585 11.1317 19.9613L8.22693 10.3925ZM7.01303 10.4523C6.60964 10.3721 6.23225 10.1937 5.91432 9.9328L-0.428973 17.6634C1.16044 18.9676 3.047 19.8596 5.06355 20.2604L7.01303 10.4523ZM5.91432 9.9328C5.59638 9.67192 5.34771 9.33666 5.19034 8.95673L-4.04841 12.7837C-3.26159 14.6832 -2.01839 16.3593 -0.428973 17.6634L5.91432 9.9328ZM5.19034 8.95673C5.03296 8.5768 4.97172 8.16392 5.01206 7.75467L-4.93973 6.77386C-5.14138 8.81995 -4.83523 10.8842 -4.04841 12.7837L5.19034 8.95673ZM5.01206 7.75467C5.05239 7.34542 5.19305 6.95243 5.42157 6.61053L-2.89235 1.05366C-4.03484 2.76301 -4.73807 4.72777 -4.93973 6.77386L5.01206 7.75467ZM5.42157 6.61053C5.6501 6.26862 5.95944 5.98834 6.32219 5.79454L1.61004 -3.02564C-0.203383 -2.05683 -1.74986 -0.655679 -2.89235 1.05366L5.42157 6.61053ZM6.32219 5.79454C6.68495 5.60074 7.08991 5.4994 7.5012 5.49951L7.50386 -4.50049C5.44786 -4.50103 3.42347 -3.99446 1.61004 -3.02564L6.32219 5.79454ZM2.50253 0.499512V1.43694H12.5025V0.499512H2.50253Z" fill="black" mask="url(#path-3-inside-2_52_3935)"/>
<mask id="path-5-inside-3_52_3935" fill="white">
<path d="M7.03318 3.31177C7.15749 3.31177 7.27671 3.36115 7.36462 3.44905C7.45252 3.53695 7.5019 3.65617 7.5019 3.78048V8.6645L10.5467 10.4044C10.6515 10.4676 10.7275 10.5693 10.7583 10.6877C10.7891 10.8062 10.7723 10.932 10.7116 11.0383C10.6509 11.1445 10.551 11.2228 10.4333 11.2564C10.3156 11.29 10.1894 11.2762 10.0818 11.2181L6.80069 9.3432C6.72895 9.30222 6.66932 9.24301 6.62783 9.17156C6.58634 9.10011 6.56448 9.01897 6.56445 8.93635V3.78048C6.56445 3.65617 6.61384 3.53695 6.70174 3.44905C6.78964 3.36115 6.90886 3.31177 7.03318 3.31177Z"/>
</mask>
<path d="M7.03318 3.31177C7.15749 3.31177 7.27671 3.36115 7.36462 3.44905C7.45252 3.53695 7.5019 3.65617 7.5019 3.78048V8.6645L10.5467 10.4044C10.6515 10.4676 10.7275 10.5693 10.7583 10.6877C10.7891 10.8062 10.7723 10.932 10.7116 11.0383C10.6509 11.1445 10.551 11.2228 10.4333 11.2564C10.3156 11.29 10.1894 11.2762 10.0818 11.2181L6.80069 9.3432C6.72895 9.30222 6.66932 9.24301 6.62783 9.17156C6.58634 9.10011 6.56448 9.01897 6.56445 8.93635V3.78048C6.56445 3.65617 6.61384 3.53695 6.70174 3.44905C6.78964 3.36115 6.90886 3.31177 7.03318 3.31177Z" fill="black"/>
<path d="M7.03318 3.31177V8.31177V3.31177ZM7.5019 8.6645H2.5019V11.5661L5.02125 13.0057L7.5019 8.6645ZM10.5467 10.4044L13.1294 6.12305L13.0788 6.09249L13.0274 6.06313L10.5467 10.4044ZM10.0818 11.2181L7.60111 15.5593L7.65248 15.5887L7.70454 15.6168L10.0818 11.2181ZM6.80069 9.3432L9.28135 5.00196L9.28065 5.00156L6.80069 9.3432ZM6.56445 8.93635H1.56445L1.56445 8.93796L6.56445 8.93635ZM7.03318 8.31177C5.83144 8.31177 4.6789 7.83439 3.82912 6.98462L10.9001 -0.0865192C9.87452 -1.11209 8.48354 -1.68823 7.03318 -1.68823V8.31177ZM3.82912 6.98462C2.97933 6.13485 2.5019 4.98229 2.5019 3.78048H12.5019C12.5019 2.33005 11.9257 0.939054 10.9001 -0.0865192L3.82912 6.98462ZM2.5019 3.78048V8.6645H12.5019V3.78048H2.5019ZM5.02125 13.0057L8.06609 14.7456L13.0274 6.06313L9.98256 4.32326L5.02125 13.0057ZM7.96405 14.6857C6.95093 14.0745 6.21702 13.0913 5.91922 11.9462L15.5973 9.4293C15.2379 8.04726 14.3522 6.86065 13.1294 6.12305L7.96405 14.6857ZM5.91922 11.9462C5.62141 10.801 5.78335 9.58483 6.3704 8.55752L15.0528 13.519C15.7613 12.2792 15.9567 10.8114 15.5973 9.4293L5.91922 11.9462ZM6.3704 8.55752C6.95744 7.53022 7.92301 6.77329 9.06075 6.4485L11.8058 16.0643C13.179 15.6723 14.3443 14.7588 15.0528 13.519L6.3704 8.55752ZM9.06075 6.4485C10.1985 6.1237 11.4181 6.2568 12.459 6.81933L7.70454 15.6168C8.96078 16.2957 10.4327 16.4563 11.8058 16.0643L9.06075 6.4485ZM12.5624 6.87682L9.28135 5.00196L4.32003 13.6844L7.60111 15.5593L12.5624 6.87682ZM9.28065 5.00156C9.97417 5.3977 10.5507 5.97012 10.9518 6.66084L2.30391 11.6823C2.78795 12.5159 3.48373 13.2067 4.32073 13.6848L9.28065 5.00156ZM10.9518 6.66084C11.3528 7.35156 11.5642 8.13602 11.5645 8.93474L1.56445 8.93796C1.56476 9.90192 1.81986 10.8487 2.30391 11.6823L10.9518 6.66084ZM11.5645 8.93635V3.78048H1.56445V8.93635H11.5645ZM11.5645 3.78048C11.5645 4.98229 11.087 6.13485 10.2372 6.98462L3.16624 -0.0865192C2.14065 0.939054 1.56445 2.33005 1.56445 3.78048H11.5645ZM10.2372 6.98462C9.38745 7.83439 8.23492 8.31177 7.03318 8.31177V-1.68823C5.58281 -1.68823 4.19183 -1.11209 3.16624 -0.0865192L10.2372 6.98462Z" fill="black" mask="url(#path-5-inside-3_52_3935)"/>
</svg>
