<svg width="14" height="16" viewBox="0 0 14 16" fill="none" xmlns="http://www.w3.org/2000/svg">
<path d="M4.26673 5.8667C4.40818 5.8667 4.54384 5.92289 4.64386 6.02291C4.74387 6.12293 4.80007 6.25858 4.80007 6.40003V12.8C4.80007 12.9415 4.74387 13.0771 4.64386 13.1772C4.54384 13.2772 4.40818 13.3334 4.26673 13.3334C4.12528 13.3334 3.98963 13.2772 3.88961 13.1772C3.78959 13.0771 3.7334 12.9415 3.7334 12.8V6.40003C3.7334 6.25858 3.78959 6.12293 3.88961 6.02291C3.98963 5.92289 4.12528 5.8667 4.26673 5.8667ZM6.9334 5.8667C7.07485 5.8667 7.2105 5.92289 7.31052 6.02291C7.41054 6.12293 7.46673 6.25858 7.46673 6.40003V12.8C7.46673 12.9415 7.41054 13.0771 7.31052 13.1772C7.2105 13.2772 7.07485 13.3334 6.9334 13.3334C6.79195 13.3334 6.65629 13.2772 6.55627 13.1772C6.45626 13.0771 6.40006 12.9415 6.40006 12.8V6.40003C6.40006 6.25858 6.45626 6.12293 6.55627 6.02291C6.65629 5.92289 6.79195 5.8667 6.9334 5.8667ZM10.1334 6.40003C10.1334 6.25858 10.0772 6.12293 9.97719 6.02291C9.87717 5.92289 9.74151 5.8667 9.60006 5.8667C9.45862 5.8667 9.32296 5.92289 9.22294 6.02291C9.12292 6.12293 9.06673 6.25858 9.06673 6.40003V12.8C9.06673 12.9415 9.12292 13.0771 9.22294 13.1772C9.32296 13.2772 9.45862 13.3334 9.60006 13.3334C9.74151 13.3334 9.87717 13.2772 9.97719 13.1772C10.0772 13.0771 10.1334 12.9415 10.1334 12.8V6.40003Z" fill="black"/>
<path d="M13.8667 3.2C13.8667 3.4829 13.7543 3.75421 13.5542 3.95425C13.3542 4.15429 13.0829 4.26667 12.8 4.26667H12.2667V13.8667C12.2667 14.4325 12.0419 14.9751 11.6418 15.3752C11.2417 15.7752 10.6991 16 10.1333 16H3.73333C3.16754 16 2.62492 15.7752 2.22484 15.3752C1.82476 14.9751 1.6 14.4325 1.6 13.8667V4.26667H1.06667C0.783769 4.26667 0.512458 4.15429 0.312419 3.95425C0.112381 3.75421 0 3.4829 0 3.2V2.13333C0 1.85044 0.112381 1.57912 0.312419 1.37909C0.512458 1.17905 0.783769 1.06667 1.06667 1.06667H4.8C4.8 0.783769 4.91238 0.512458 5.11242 0.312419C5.31246 0.112381 5.58377 0 5.86667 0L8 0C8.2829 0 8.55421 0.112381 8.75425 0.312419C8.95429 0.512458 9.06667 0.783769 9.06667 1.06667H12.8C13.0829 1.06667 13.3542 1.17905 13.5542 1.37909C13.7543 1.57912 13.8667 1.85044 13.8667 2.13333V3.2ZM2.79253 4.26667L2.66667 4.3296V13.8667C2.66667 14.1496 2.77905 14.4209 2.97909 14.6209C3.17912 14.821 3.45044 14.9333 3.73333 14.9333H10.1333C10.4162 14.9333 10.6875 14.821 10.8876 14.6209C11.0876 14.4209 11.2 14.1496 11.2 13.8667V4.3296L11.0741 4.26667H2.79253ZM1.06667 3.2H12.8V2.13333H1.06667V3.2Z" fill="black"/>
</svg>
