<svg width="16" height="16" viewBox="0 0 16 16" fill="none" xmlns="http://www.w3.org/2000/svg">
<g clip-path="url(#clip0_213_21023)">
<path d="M14.0003 5.33332C14.7367 5.33332 15.3337 5.93028 15.3337 6.66666V9.33332C15.3337 10.0697 14.7367 10.6667 14.0003 10.6667H13.2924C12.9643 13.2975 10.7201 15.3333 8.00032 15.3333V14C10.2095 14 12.0003 12.2091 12.0003 9.99999V5.99999C12.0003 3.79085 10.2095 1.99999 8.00032 1.99999C5.79118 1.99999 4.00032 3.79085 4.00032 5.99999V10.6667H2.00033C1.26395 10.6667 0.666992 10.0697 0.666992 9.33332V6.66666C0.666992 5.93028 1.26395 5.33332 2.00033 5.33332H2.70825C3.03632 2.70245 5.28058 0.666656 8.00032 0.666656C10.7201 0.666656 12.9643 2.70245 13.2924 5.33332H14.0003ZM5.17329 10.5233L5.88004 9.39246C6.49473 9.77746 7.22152 9.99999 8.00032 9.99999C8.77912 9.99999 9.50592 9.77746 10.1206 9.39246L10.8274 10.5233C10.0078 11.0366 9.03872 11.3333 8.00032 11.3333C6.96192 11.3333 5.99287 11.0366 5.17329 10.5233Z" fill="#0C0C0C"/>
</g>
<defs>
<clipPath id="clip0_213_21023">
<rect width="16" height="16" fill="white"/>
</clipPath>
</defs>
</svg>
