<svg width="16" height="16" viewBox="0 0 16 16" fill="none" xmlns="http://www.w3.org/2000/svg">
<path d="M8.0031 14.6692C4.3212 14.6692 1.33643 11.6845 1.33643 8.00257C1.33643 4.3207 4.3212 1.33594 8.0031 1.33594C11.685 1.33594 14.6698 4.3207 14.6698 8.00257C14.6698 11.6845 11.685 14.6692 8.0031 14.6692ZM8.0031 13.3359C10.9486 13.3359 13.3364 10.9481 13.3364 8.00257C13.3364 5.05708 10.9486 2.66927 8.0031 2.66927C5.05757 2.66927 2.66976 5.05708 2.66976 8.00257C2.66976 10.9481 5.05757 13.3359 8.0031 13.3359ZM5.66976 9.3359H9.33644C9.5205 9.3359 9.66977 9.1867 9.66977 9.00257C9.66977 8.8185 9.5205 8.66924 9.33644 8.66924H6.66977C5.74929 8.66924 5.00309 7.9231 5.00309 7.00257C5.00309 6.08212 5.74929 5.33594 6.66977 5.33594H7.33644V4.0026H8.66977V5.33594H10.3364V6.66924H6.66977C6.48566 6.66924 6.33642 6.8185 6.33642 7.00257C6.33642 7.1867 6.48566 7.3359 6.66977 7.3359H9.33644C10.2569 7.3359 11.0031 8.0821 11.0031 9.00257C11.0031 9.9231 10.2569 10.6692 9.33644 10.6692H8.66977V12.0026H7.33644V10.6692H5.66976V9.3359Z" fill="#0C0C0C"/>
</svg>
