<svg width="17" height="16" viewBox="0 0 17 16" fill="none" xmlns="http://www.w3.org/2000/svg">
<path d="M2.54161 5.00314C3.63858 2.82433 5.89308 1.33038 8.49919 1.33038C10.2961 1.33038 11.8052 1.99102 12.9598 3.06675L11.0477 4.97888C10.3568 4.31828 9.47792 3.9819 8.49919 3.9819C6.7628 3.9819 5.29308 5.15463 4.76889 6.73038C4.63552 7.13038 4.55976 7.55765 4.55976 7.99705C4.55976 8.43645 4.63552 8.86372 4.76889 9.26372C5.29308 10.8394 6.7628 12.0122 8.49919 12.0122C9.39612 12.0122 10.1598 11.7758 10.7568 11.3758C11.4628 10.9031 11.9325 10.197 12.0871 9.36372H8.49919V6.78492H14.7779C14.8568 7.22125 14.8992 7.67585 14.8992 8.14858C14.8992 10.1788 14.1719 11.8879 12.9113 13.0486C11.8083 14.0668 10.2992 14.6637 8.49919 14.6637C5.89308 14.6637 3.63858 13.1698 2.54161 10.991C2.09011 10.091 1.83252 9.07278 1.83252 7.99705C1.83252 6.92132 2.09011 5.90312 2.54161 5.00314Z" fill="#F8F8F8"/>
</svg>
