<svg width="16" height="16" viewBox="0 0 16 16" fill="none" xmlns="http://www.w3.org/2000/svg">
<path d="M8.00016 14.6682C4.31826 14.6682 1.3335 11.6834 1.3335 8.0015C1.3335 4.31961 4.31826 1.33484 8.00016 1.33484C11.682 1.33484 14.6668 4.31961 14.6668 8.0015C14.6668 11.6834 11.682 14.6682 8.00016 14.6682ZM8.00016 13.3348C10.9457 13.3348 13.3335 10.947 13.3335 8.0015C13.3335 5.05599 10.9457 2.66817 8.00016 2.66817C5.05464 2.66817 2.66683 5.05599 2.66683 8.0015C2.66683 10.947 5.05464 13.3348 8.00016 13.3348ZM7.3335 10.0015H8.66683V11.3348H7.3335V10.0015ZM8.66683 8.9049V9.33484H7.3335V8.33484C7.3335 7.96664 7.63196 7.66817 8.00016 7.66817C8.55243 7.66817 9.00016 7.22044 9.00016 6.66817C9.00016 6.11589 8.55243 5.66817 8.00016 5.66817C7.51503 5.66817 7.11056 6.01366 7.01936 6.47202L5.7117 6.21048C5.92441 5.14097 6.86816 4.33484 8.00016 4.33484C9.28883 4.33484 10.3335 5.37951 10.3335 6.66817C10.3335 7.72517 9.63063 8.61804 8.66683 8.9049Z" fill="#0C0C0C"/>
</svg>
