<svg width="16" height="14" viewBox="0 0 16 14" fill="none" xmlns="http://www.w3.org/2000/svg">
<path d="M8.33094 0.297185C8.14059 0.106898 7.88246 0 7.61332 0C7.34417 0 7.08604 0.106898 6.8957 0.297185L0.148835 7.04303C0.101648 7.09022 0.0642179 7.14623 0.0386808 7.20789C0.0131438 7.26954 0 7.33562 0 7.40235C0 7.46908 0.0131438 7.53516 0.0386808 7.59681C0.0642179 7.65846 0.101648 7.71448 0.148835 7.76167C0.244132 7.85696 0.373382 7.9105 0.508153 7.9105C0.574884 7.9105 0.640962 7.89736 0.702614 7.87182C0.764266 7.84628 0.820285 7.80885 0.867471 7.76167L1.52318 7.10495V12.4775C1.52318 12.8813 1.68359 13.2685 1.96912 13.5541C2.25465 13.8396 2.64191 14 3.04571 14H12.1809C12.5847 14 12.972 13.8396 13.2575 13.5541C13.543 13.2685 13.7035 12.8813 13.7035 12.4775V7.10495L14.3592 7.76167C14.4545 7.85696 14.5837 7.9105 14.7185 7.9105C14.8532 7.9105 14.9825 7.85696 15.0778 7.76167C15.1731 7.66637 15.2266 7.53712 15.2266 7.40235C15.2266 7.26758 15.1731 7.13833 15.0778 7.04303L12.6884 4.65468V1.31221C12.6884 1.17761 12.635 1.04852 12.5398 0.953344C12.4446 0.858167 12.3155 0.804697 12.1809 0.804697H11.1659C11.0313 0.804697 10.9022 0.858167 10.807 0.953344C10.7119 1.04852 10.6584 1.17761 10.6584 1.31221V2.62463L8.33094 0.297185ZM12.6884 6.08992V12.4775C12.6884 12.6121 12.635 12.7412 12.5398 12.8363C12.4446 12.9315 12.3155 12.985 12.1809 12.985H3.04571C2.91111 12.985 2.78202 12.9315 2.68685 12.8363C2.59167 12.7412 2.5382 12.6121 2.5382 12.4775V6.08992L7.61332 1.01481L12.6884 6.08992Z" fill="black"/>
</svg>
