<svg width="15" height="16" viewBox="0 0 15 16" fill="none" xmlns="http://www.w3.org/2000/svg">
<path d="M13.125 1.4375C13.3736 1.4375 13.6121 1.53627 13.7879 1.71209C13.9637 1.8879 14.0625 2.12636 14.0625 2.375V13.625C14.0625 13.8736 13.9637 14.1121 13.7879 14.2879C13.6121 14.4637 13.3736 14.5625 13.125 14.5625H1.875C1.62636 14.5625 1.3879 14.4637 1.21209 14.2879C1.03627 14.1121 0.9375 13.8736 0.9375 13.625V2.375C0.9375 2.12636 1.03627 1.8879 1.21209 1.71209C1.3879 1.53627 1.62636 1.4375 1.875 1.4375H13.125ZM1.875 0.5C1.37772 0.5 0.900806 0.697544 0.549175 1.04917C0.197544 1.40081 0 1.87772 0 2.375L0 13.625C0 14.1223 0.197544 14.5992 0.549175 14.9508C0.900806 15.3025 1.37772 15.5 1.875 15.5H13.125C13.6223 15.5 14.0992 15.3025 14.4508 14.9508C14.8025 14.5992 15 14.1223 15 13.625V2.375C15 1.87772 14.8025 1.40081 14.4508 1.04917C14.0992 0.697544 13.6223 0.5 13.125 0.5H1.875Z" fill="black"/>
<path d="M8.37183 6.67625L6.22495 6.94531L6.14808 7.30156L6.56995 7.37937C6.84558 7.445 6.89996 7.54437 6.83996 7.81906L6.14808 11.0703C5.96621 11.9112 6.24652 12.3069 6.90558 12.3069C7.41652 12.3069 8.00996 12.0706 8.27902 11.7462L8.36152 11.3562C8.17402 11.5212 7.90027 11.5869 7.71839 11.5869C7.46058 11.5869 7.36683 11.4059 7.43339 11.0872L8.37183 6.67625ZM8.43745 4.71875C8.43745 4.96739 8.33868 5.20585 8.16287 5.38166C7.98705 5.55748 7.7486 5.65625 7.49995 5.65625C7.25131 5.65625 7.01286 5.55748 6.83704 5.38166C6.66123 5.20585 6.56246 4.96739 6.56246 4.71875C6.56246 4.47011 6.66123 4.23165 6.83704 4.05584C7.01286 3.88002 7.25131 3.78125 7.49995 3.78125C7.7486 3.78125 7.98705 3.88002 8.16287 4.05584C8.33868 4.23165 8.43745 4.47011 8.43745 4.71875Z" fill="black"/>
</svg>
