<svg width="216" height="219" viewBox="0 0 216 219" fill="none" xmlns="http://www.w3.org/2000/svg">
<g filter="url(#filter0_d_118_440)">
<g filter="url(#filter1_d_118_440)">
<path d="M107.817 33.5827C107.046 34.0657 106.112 34.6081 105.217 35.2174L52.9433 70.7206C52.3802 71.107 51.8478 71.5305 51.2615 71.8872C49.4486 73.0018 47.6357 73.4328 46.1931 71.3968C44.7505 69.3608 45.8845 67.793 47.5508 66.6189C52.249 63.3198 57.032 60.1321 61.7765 56.8924C76.2284 47.0147 90.6649 37.1221 105.086 27.2147C107.254 25.7286 108.789 25.2976 111.258 26.9918C129.773 39.7798 148.403 52.382 167.003 65.0437C167.775 65.5861 168.546 66.136 169.364 66.6784C171.524 68.1645 171.339 70.1113 170.004 71.8352C168.669 73.5591 166.803 72.8606 165.236 71.8352C158.903 67.5403 152.6 63.2306 146.274 58.9655C134.502 50.995 122.716 43.0344 110.918 35.0837C110.046 34.4892 109.298 33.5827 107.817 33.5827Z" fill="#FBA131"/>
<path d="M57.6807 125.229C58.3673 123.312 59.9257 122.94 61.6846 123.394C63.4435 123.847 63.8369 125.318 63.8601 126.879C63.9295 132.749 64.0452 138.619 63.999 144.489C63.999 146.718 64.7241 147.461 67.0848 147.461C94.6669 147.392 122.249 147.392 149.831 147.461C152.362 147.461 152.832 146.451 152.801 144.37C152.724 138.76 152.871 133.15 152.747 127.547C152.701 125.222 153.519 123.951 155.995 124.018C158.356 124.077 159.42 125.184 159.39 127.547C159.312 135.156 159.251 142.773 159.39 150.374C159.451 153.064 158.541 153.725 155.833 153.71C136.701 153.606 117.577 153.658 98.4445 153.666C85.97 153.666 73.4956 153.666 61.0211 153.718C58.6528 153.718 57.0944 153.599 57.1639 150.589C57.4339 142.186 57.403 133.782 57.4879 125.378C57.5882 125.422 57.6807 125.229 57.6807 125.229Z" fill="#FBA131"/>
<path d="M83.8181 125.013V78.4755H99.957C98.7921 80.1696 97.7892 81.7301 96.6706 83.179C96.2704 83.5336 95.7404 83.7207 95.1971 83.6992C93.1759 83.7586 91.1469 83.6992 89.0254 83.6992V108.279C89.5577 107.536 89.9358 107.098 90.2752 106.6C96.4468 97.6835 102.688 88.7668 108.79 79.7461C109.052 79.2644 109.455 78.867 109.948 78.603C110.441 78.3389 111.004 78.2197 111.567 78.26C118.51 78.3194 125.454 78.26 132.721 78.26C132.281 78.951 132.003 79.4117 131.695 79.8576C126.966 86.6937 122.267 93.5669 117.454 100.351C116.59 101.562 116.736 102.268 117.508 103.368C122.136 109.936 126.673 116.557 131.24 123.163C131.656 123.765 132.057 124.389 132.59 125.191C131.957 125.251 131.533 125.318 131.116 125.318C124.466 125.318 117.816 125.318 111.166 125.318C110.715 125.354 110.262 125.263 109.865 125.054C109.467 124.845 109.142 124.529 108.929 124.144C106.831 121.001 104.663 117.895 102.472 114.818C102.212 114.544 102.067 114.187 102.067 113.815C102.067 113.444 102.212 113.086 102.472 112.812C103.321 111.72 104.084 110.583 105.018 109.216C107.17 112.322 109.292 115.272 111.282 118.318C111.561 118.853 112.001 119.295 112.544 119.586C113.088 119.876 113.71 120.001 114.329 119.945C116.952 119.819 119.591 119.908 122.622 119.908L110.125 101.815C114.244 95.8704 118.333 89.926 122.692 83.6248C120.378 83.7269 118.06 83.7096 115.749 83.5728C113.319 83.3053 111.93 84.3159 110.541 86.3593C102.163 98.6792 93.6387 110.88 85.1604 123.141C84.7747 123.75 84.3967 124.225 83.8181 125.013Z" fill="white"/>
</g>
</g>
<defs>
<filter id="filter0_d_118_440" x="37.1003" y="18.8712" width="142.332" height="144.684" filterUnits="userSpaceOnUse" color-interpolation-filters="sRGB">
<feFlood flood-opacity="0" result="BackgroundImageFix"/>
<feColorMatrix in="SourceAlpha" type="matrix" values="0 0 0 0 0 0 0 0 0 0 0 0 0 0 0 0 0 0 127 0" result="hardAlpha"/>
<feOffset dy="1.40541"/>
<feGaussianBlur stdDeviation="4.21622"/>
<feComposite in2="hardAlpha" operator="out"/>
<feColorMatrix type="matrix" values="0 0 0 0 0 0 0 0 0 0 0 0 0 0 0 0 0 0 0.5 0"/>
<feBlend mode="normal" in2="BackgroundImageFix" result="effect1_dropShadow_118_440"/>
<feBlend mode="normal" in="SourceGraphic" in2="effect1_dropShadow_118_440" result="shape"/>
</filter>
<filter id="filter1_d_118_440" x="0.559742" y="0.600897" width="215.413" height="217.766" filterUnits="userSpaceOnUse" color-interpolation-filters="sRGB">
<feFlood flood-opacity="0" result="BackgroundImageFix"/>
<feColorMatrix in="SourceAlpha" type="matrix" values="0 0 0 0 0 0 0 0 0 0 0 0 0 0 0 0 0 0 127 0" result="hardAlpha"/>
<feOffset dy="19.6757"/>
<feGaussianBlur stdDeviation="22.4865"/>
<feComposite in2="hardAlpha" operator="out"/>
<feColorMatrix type="matrix" values="0 0 0 0 0 0 0 0 0 0 0 0 0 0 0 0 0 0 1 0"/>
<feBlend mode="normal" in2="BackgroundImageFix" result="effect1_dropShadow_118_440"/>
<feBlend mode="normal" in="SourceGraphic" in2="effect1_dropShadow_118_440" result="shape"/>
</filter>
</defs>
</svg>
