<svg width="122" height="85" viewBox="0 0 122 85" fill="none" xmlns="http://www.w3.org/2000/svg">
<g filter="url(#filter0_d_824_203)">
<g filter="url(#filter1_d_824_203)">
<path d="M61.2915 27.532C61.1001 27.6508 60.8684 27.7843 60.6464 27.9342L47.6751 36.668C47.5353 36.7631 47.4032 36.8673 47.2577 36.955C46.8079 37.2292 46.358 37.3352 46 36.8344C45.6421 36.3335 45.9235 35.9478 46.337 35.659C47.5028 34.8474 48.6896 34.0632 49.8669 33.2662C53.4531 30.8363 57.0354 28.4027 60.6138 25.9655C61.1517 25.5999 61.5327 25.4939 62.1453 25.9106C66.7396 29.0565 71.3626 32.1567 75.978 35.2715C76.1694 35.4049 76.3609 35.5402 76.5638 35.6736C77.0998 36.0392 77.0538 36.5181 76.7227 36.9422C76.3915 37.3663 75.9282 37.1945 75.5396 36.9422C73.968 35.8857 72.404 34.8255 70.8343 33.7762C67.9131 31.8155 64.9886 29.8571 62.061 27.9013C61.8447 27.755 61.659 27.532 61.2915 27.532Z" fill="#FBA131"/>
<path d="M48.8505 50.0772C49.0209 49.6056 49.4076 49.5142 49.844 49.6257C50.2805 49.7372 50.3781 50.0991 50.3838 50.483C50.4011 51.9271 50.4298 53.3711 50.4183 54.8152C50.4183 55.3636 50.5982 55.5464 51.184 55.5464C58.0283 55.5293 64.8726 55.5293 71.7168 55.5464C72.3447 55.5464 72.4615 55.2978 72.4538 54.786C72.4347 53.4059 72.4711 52.0258 72.4404 50.6475C72.429 50.0754 72.6319 49.7628 73.2464 49.7792C73.8321 49.7939 74.0963 50.0662 74.0886 50.6475C74.0695 52.5193 74.0542 54.393 74.0886 56.2629C74.104 56.9246 73.8781 57.0873 73.2062 57.0837C68.4587 57.0581 63.7131 57.0709 58.9657 57.0727C55.8702 57.0727 52.7748 57.0727 49.6794 57.0855C49.0917 57.0855 48.705 57.0563 48.7222 56.3159C48.7892 54.2485 48.7816 52.1812 48.8026 50.1138C48.8275 50.1247 48.8505 50.0772 48.8505 50.0772Z" fill="#FBA131"/>
<path d="M55.3364 50.0241V38.5757H59.3411C59.0521 38.9925 58.8032 39.3763 58.5257 39.7328C58.4263 39.82 58.2948 39.866 58.16 39.8607C57.6585 39.8754 57.155 39.8607 56.6286 39.8607V45.9075C56.7607 45.7248 56.8545 45.6169 56.9387 45.4944C58.4701 43.3009 60.0188 41.1074 61.533 38.8883C61.598 38.7698 61.6979 38.672 61.8203 38.6071C61.9428 38.5421 62.0825 38.5128 62.2222 38.5227C63.945 38.5373 65.6679 38.5227 67.4712 38.5227C67.3621 38.6927 67.2932 38.806 67.2166 38.9157C66.0431 40.5974 64.8773 42.2882 63.6828 43.9571C63.4684 44.2551 63.5048 44.4288 63.6962 44.6993C64.8448 46.3152 65.9704 47.9439 67.1036 49.5689C67.207 49.717 67.3066 49.8705 67.4386 50.0679C67.2817 50.0825 67.1764 50.099 67.073 50.099C65.4229 50.099 63.7728 50.099 62.1226 50.099C62.0106 50.108 61.8984 50.0854 61.7997 50.0341C61.701 49.9828 61.6203 49.9049 61.5675 49.8102C61.0468 49.037 60.5089 48.2729 59.9652 47.5161C59.9006 47.4487 59.8648 47.3607 59.8648 47.2694C59.8648 47.178 59.9006 47.09 59.9652 47.0226C60.1758 46.7539 60.3653 46.4742 60.5969 46.1379C61.131 46.9019 61.6574 47.6276 62.1513 48.3771C62.2205 48.5088 62.3297 48.6175 62.4646 48.6889C62.5995 48.7603 62.7539 48.7912 62.9075 48.7774C63.5583 48.7463 64.213 48.7683 64.9654 48.7683L61.8642 44.3172C62.8864 42.8549 63.901 41.3926 64.9826 39.8425C64.4085 39.8676 63.8334 39.8633 63.2597 39.8297C62.6567 39.7639 62.3121 40.0125 61.9676 40.5151C59.8886 43.5459 57.7733 46.5473 55.6695 49.5634C55.5738 49.7133 55.48 49.8303 55.3364 50.0241Z" fill="white"/>
</g>
</g>
<defs>
<filter id="filter0_d_824_203" x="37.4037" y="18.6146" width="47.9984" height="48.3088" filterUnits="userSpaceOnUse" color-interpolation-filters="sRGB">
<feFlood flood-opacity="0" result="BackgroundImageFix"/>
<feColorMatrix in="SourceAlpha" type="matrix" values="0 0 0 0 0 0 0 0 0 0 0 0 0 0 0 0 0 0 127 0" result="hardAlpha"/>
<feOffset dy="1.40541"/>
<feGaussianBlur stdDeviation="4.21622"/>
<feComposite in2="hardAlpha" operator="out"/>
<feColorMatrix type="matrix" values="0 0 0 0 0 0 0 0 0 0 0 0 0 0 0 0 0 0 0.5 0"/>
<feBlend mode="normal" in2="BackgroundImageFix" result="effect1_dropShadow_824_203"/>
<feBlend mode="normal" in="SourceGraphic" in2="effect1_dropShadow_824_203" result="shape"/>
</filter>
<filter id="filter1_d_824_203" x="0.863209" y="0.344305" width="121.079" height="121.39" filterUnits="userSpaceOnUse" color-interpolation-filters="sRGB">
<feFlood flood-opacity="0" result="BackgroundImageFix"/>
<feColorMatrix in="SourceAlpha" type="matrix" values="0 0 0 0 0 0 0 0 0 0 0 0 0 0 0 0 0 0 127 0" result="hardAlpha"/>
<feOffset dy="19.6757"/>
<feGaussianBlur stdDeviation="22.4865"/>
<feComposite in2="hardAlpha" operator="out"/>
<feColorMatrix type="matrix" values="0 0 0 0 0 0 0 0 0 0 0 0 0 0 0 0 0 0 1 0"/>
<feBlend mode="normal" in2="BackgroundImageFix" result="effect1_dropShadow_824_203"/>
<feBlend mode="normal" in="SourceGraphic" in2="effect1_dropShadow_824_203" result="shape"/>
</filter>
</defs>
</svg>
