<svg width="14" height="14" viewBox="0 0 14 14" fill="none" xmlns="http://www.w3.org/2000/svg">
<path d="M7 13.8426L3.28769 10.1303C1.23744 8.08 1.23744 4.75591 3.28769 2.70566C5.33794 0.655405 8.66203 0.655405 10.7123 2.70566C12.7626 4.75591 12.7626 8.08 10.7123 10.1303L7 13.8426ZM9.88732 9.30529C11.482 7.71069 11.482 5.12526 9.88732 3.53061C8.29272 1.93597 5.70729 1.93597 4.11265 3.53061C2.51801 5.12526 2.51801 7.71069 4.11265 9.30529L7 12.1927L9.88732 9.30529ZM7 7.58464C6.35565 7.58464 5.83333 7.06232 5.83333 6.41797C5.83333 5.77364 6.35565 5.2513 7 5.2513C7.64435 5.2513 8.16667 5.77364 8.16667 6.41797C8.16667 7.06232 7.64435 7.58464 7 7.58464Z" fill="#6A6A6A"/>
</svg>
