<svg width="16" height="16" viewBox="0 0 16 16" fill="none" xmlns="http://www.w3.org/2000/svg">
<path d="M4 6.66666V13.3333H12.6667V6.66666H4ZM12 5.33332H13.3333C13.7015 5.33332 14 5.6318 14 5.99999V14C14 14.3682 13.7015 14.6667 13.3333 14.6667H2.66667C2.29848 14.6667 2 14.3682 2 14V5.99999C2 5.6318 2.29848 5.33332 2.66667 5.33332H4V4.66666C4 2.45752 5.79086 0.666656 8 0.666656C10.2091 0.666656 12 2.45752 12 4.66666V5.33332ZM10.6667 5.33332V4.66666C10.6667 3.1939 9.47273 1.99999 8 1.99999C6.52724 1.99999 5.33333 3.1939 5.33333 4.66666V5.33332H10.6667ZM4.66667 7.33332H6V8.66666H4.66667V7.33332ZM4.66667 9.33332H6V10.6667H4.66667V9.33332ZM4.66667 11.3333H6V12.6667H4.66667V11.3333Z" fill="#0C0C0C"/>
</svg>
