<svg width="14" height="16" viewBox="0 0 14 16" fill="none" xmlns="http://www.w3.org/2000/svg">
<path d="M7 1C7.74261 1 8.4548 1.21071 8.9799 1.58579C9.505 1.96086 9.8 2.46957 9.8 3V7H4.2V3C4.2 2.46957 4.495 1.96086 5.0201 1.58579C5.5452 1.21071 6.25739 1 7 1ZM11.2 7V3C11.2 2.20435 10.7575 1.44129 9.96985 0.87868C9.1822 0.31607 8.11391 0 7 0C5.88609 0 4.8178 0.31607 4.03015 0.87868C3.2425 1.44129 2.8 2.20435 2.8 3V7C2.05739 7 1.3452 7.21071 0.820101 7.58579C0.294999 7.96086 0 8.46957 0 9V14C0 14.5304 0.294999 15.0391 0.820101 15.4142C1.3452 15.7893 2.05739 16 2.8 16H11.2C11.9426 16 12.6548 15.7893 13.1799 15.4142C13.705 15.0391 14 14.5304 14 14V9C14 8.46957 13.705 7.96086 13.1799 7.58579C12.6548 7.21071 11.9426 7 11.2 7ZM2.8 8H11.2C11.5713 8 11.9274 8.10536 12.1899 8.29289C12.4525 8.48043 12.6 8.73478 12.6 9V14C12.6 14.2652 12.4525 14.5196 12.1899 14.7071C11.9274 14.8946 11.5713 15 11.2 15H2.8C2.4287 15 2.0726 14.8946 1.81005 14.7071C1.5475 14.5196 1.4 14.2652 1.4 14V9C1.4 8.73478 1.5475 8.48043 1.81005 8.29289C2.0726 8.10536 2.4287 8 2.8 8Z" fill="black"/>
</svg>
