<svg width="16" height="16" viewBox="0 0 16 16" fill="none" xmlns="http://www.w3.org/2000/svg">
<path d="M1.33252 3.33038L5.99919 1.33038L9.99919 3.33038L14.2012 1.52952C14.3705 1.457 14.5664 1.53538 14.6389 1.70459C14.6567 1.74608 14.6659 1.79076 14.6659 1.8359V12.6637L9.99919 14.6637L5.99919 12.6637L1.79716 14.4646C1.62795 14.5371 1.43199 14.4587 1.35947 14.2895C1.34169 14.248 1.33252 14.2033 1.33252 14.1582V3.33038ZM10.6659 12.9274L13.3325 11.7845V3.35244L10.6659 4.49529V12.9274ZM9.33252 12.8397V4.48776L6.66585 3.15443V11.5063L9.33252 12.8397ZM5.33252 11.4988V3.06672L2.66585 4.20958V12.6416L5.33252 11.4988Z" fill="#F8F8F8"/>
</svg>
