<svg width="36" height="36" viewBox="0 0 36 36" fill="none" xmlns="http://www.w3.org/2000/svg">
<path d="M18 0.5C27.665 0.5 35.5 8.33502 35.5 18C35.5 27.665 27.665 35.5 18 35.5C8.33502 35.5 0.5 27.665 0.5 18C0.5 8.33502 8.33502 0.5 18 0.5Z" fill="#FF6C48"/>
<path d="M18 0.5C27.665 0.5 35.5 8.33502 35.5 18C35.5 27.665 27.665 35.5 18 35.5C8.33502 35.5 0.5 27.665 0.5 18C0.5 8.33502 8.33502 0.5 18 0.5Z" stroke="#FFCEC2"/>
<path d="M18.001 11.8347C21.4066 11.8349 24.167 14.5961 24.167 18.0017C24.1668 21.4072 21.4064 24.1675 18.001 24.1677C14.5953 24.1677 11.8342 21.4073 11.834 18.0017C11.834 14.596 14.5952 11.8347 18.001 11.8347ZM18.001 12.1677C14.7793 12.1677 12.167 14.78 12.167 18.0017C12.1672 21.2232 14.7794 23.8347 18.001 23.8347C21.2224 23.8345 23.8338 21.2231 23.834 18.0017C23.834 14.7802 21.2225 12.1679 18.001 12.1677ZM18.167 20.5017V20.8347H17.834V20.5017H18.167ZM18.167 15.1677V18.1677H17.834V15.1677H18.167Z" stroke="#F8F8F8"/>
</svg>
