<svg width="36" height="36" viewBox="0 0 36 36" fill="none" xmlns="http://www.w3.org/2000/svg">
<path d="M18 0.5C27.665 0.5 35.5 8.33502 35.5 18C35.5 27.665 27.665 35.5 18 35.5C8.33502 35.5 0.5 27.665 0.5 18C0.5 8.33502 8.33502 0.5 18 0.5Z" fill="#009530"/>
<path d="M18 0.5C27.665 0.5 35.5 8.33502 35.5 18C35.5 27.665 27.665 35.5 18 35.5C8.33502 35.5 0.5 27.665 0.5 18C0.5 8.33502 8.33502 0.5 18 0.5Z" stroke="#CCEAD6"/>
<path d="M23.2656 14.9307L16.666 21.5303L12.8945 17.7588L13.3662 17.2881L16.666 20.5879L16.9023 20.3525L22.7939 14.459L23.2656 14.9307Z" fill="#122F37" stroke="#F8F8F8" stroke-width="0.666667"/>
</svg>
