<svg width="36" height="36" viewBox="0 0 36 36" fill="none" xmlns="http://www.w3.org/2000/svg">
<path d="M18 0.5C27.665 0.5 35.5 8.33502 35.5 18C35.5 27.665 27.665 35.5 18 35.5C8.33502 35.5 0.5 27.665 0.5 18C0.5 8.33502 8.33502 0.5 18 0.5Z" fill="#F73B07"/>
<path d="M18 0.5C27.665 0.5 35.5 8.33502 35.5 18C35.5 27.665 27.665 35.5 18 35.5C8.33502 35.5 0.5 27.665 0.5 18C0.5 8.33502 8.33502 0.5 18 0.5Z" stroke="#FCBEAC"/>
<path d="M16.8595 12.5749L11.2129 22.0016C11.0964 22.2032 11.0348 22.4318 11.0342 22.6646C11.0335 22.8974 11.0939 23.1264 11.2091 23.3286C11.3244 23.5309 11.4907 23.6994 11.6913 23.8175C11.892 23.9356 12.1201 23.999 12.3529 24.0016H23.6462C23.879 23.999 24.1071 23.9356 24.3077 23.8175C24.5084 23.6994 24.6746 23.5309 24.7899 23.3286C24.9052 23.1264 24.9655 22.8974 24.9649 22.6646C24.9642 22.4318 24.9026 22.2032 24.7862 22.0016L19.1395 12.5749C19.0207 12.379 18.8533 12.217 18.6537 12.1046C18.454 11.9922 18.2287 11.9331 17.9995 11.9331C17.7704 11.9331 17.5451 11.9922 17.3454 12.1046C17.1457 12.217 16.9784 12.379 16.8595 12.5749Z" stroke="#F8F8F8" stroke-width="1.16667" stroke-linecap="round" stroke-linejoin="round"/>
<path d="M18 16V18.6667" stroke="#F8F8F8" stroke-width="1.16667" stroke-linecap="round" stroke-linejoin="round"/>
<path d="M18 21.3347H18.0071" stroke="#F8F8F8" stroke-width="1.16667" stroke-linecap="round" stroke-linejoin="round"/>
</svg>
