<svg width="14" height="14" viewBox="0 0 14 14" fill="none" xmlns="http://www.w3.org/2000/svg">
<path d="M13.349 0.651C13.4167 0.718712 13.4705 0.799103 13.5071 0.887582C13.5438 0.976061 13.5626 1.07089 13.5626 1.16667C13.5626 1.26244 13.5438 1.35727 13.5071 1.44575C13.4705 1.53423 13.4167 1.61462 13.349 1.68233L1.68233 13.349C1.61461 13.4167 1.53422 13.4704 1.44574 13.5071C1.35727 13.5437 1.26243 13.5626 1.16667 13.5626C1.0709 13.5626 0.976068 13.5437 0.88759 13.5071C0.799112 13.4704 0.718718 13.4167 0.651 13.349C0.583282 13.2813 0.529565 13.2009 0.492916 13.1124C0.456267 13.0239 0.437404 12.9291 0.437404 12.8333C0.437404 12.7376 0.456267 12.6427 0.492916 12.5543C0.529565 12.4658 0.583282 12.3854 0.651 12.3177L12.3177 0.651C12.3854 0.58327 12.4658 0.529543 12.5542 0.492887C12.6427 0.456231 12.7376 0.437364 12.8333 0.437364C12.9291 0.437364 13.0239 0.456231 13.1124 0.492887C13.2009 0.529543 13.2813 0.58327 13.349 0.651ZM2.91667 4.66667C2.45254 4.66667 2.00742 4.48229 1.67923 4.1541C1.35104 3.82591 1.16667 3.3808 1.16667 2.91667C1.16667 2.45254 1.35104 2.00742 1.67923 1.67923C2.00742 1.35104 2.45254 1.16667 2.91667 1.16667C3.3808 1.16667 3.82591 1.35104 4.1541 1.67923C4.48229 2.00742 4.66667 2.45254 4.66667 2.91667C4.66667 3.3808 4.48229 3.82591 4.1541 4.1541C3.82591 4.48229 3.3808 4.66667 2.91667 4.66667ZM2.91667 5.83333C3.69021 5.83333 4.43208 5.52604 4.97906 4.97906C5.52604 4.43208 5.83333 3.69021 5.83333 2.91667C5.83333 2.14312 5.52604 1.40125 4.97906 0.854272C4.43208 0.307291 3.69021 0 2.91667 0C2.14312 0 1.40125 0.307291 0.854272 0.854272C0.307291 1.40125 0 2.14312 0 2.91667C0 3.69021 0.307291 4.43208 0.854272 4.97906C1.40125 5.52604 2.14312 5.83333 2.91667 5.83333ZM11.0833 12.8333C10.6192 12.8333 10.1741 12.649 9.8459 12.3208C9.51771 11.9926 9.33333 11.5475 9.33333 11.0833C9.33333 10.6192 9.51771 10.1741 9.8459 9.8459C10.1741 9.51771 10.6192 9.33333 11.0833 9.33333C11.5475 9.33333 11.9926 9.51771 12.3208 9.8459C12.649 10.1741 12.8333 10.6192 12.8333 11.0833C12.8333 11.5475 12.649 11.9926 12.3208 12.3208C11.9926 12.649 11.5475 12.8333 11.0833 12.8333ZM11.0833 14C11.8569 14 12.5987 13.6927 13.1457 13.1457C13.6927 12.5987 14 11.8569 14 11.0833C14 10.3098 13.6927 9.56792 13.1457 9.02094C12.5987 8.47396 11.8569 8.16667 11.0833 8.16667C10.3098 8.16667 9.56792 8.47396 9.02094 9.02094C8.47396 9.56792 8.16667 10.3098 8.16667 11.0833C8.16667 11.8569 8.47396 12.5987 9.02094 13.1457C9.56792 13.6927 10.3098 14 11.0833 14Z" fill="black"/>
</svg>
