<svg width="16" height="16" viewBox="0 0 16 16" fill="none" xmlns="http://www.w3.org/2000/svg">
<g clip-path="url(#clip0_213_21017)">
<path d="M2.52205 1.88398L8 0.666656L13.4779 1.88398C13.783 1.95176 14 2.2223 14 2.53477V9.19259C14 10.53 13.3316 11.7789 12.2188 12.5208L8 15.3333L3.7812 12.5208C2.66841 11.7789 2 10.53 2 9.19259V2.53477C2 2.2223 2.21702 1.95176 2.52205 1.88398ZM3.33333 3.06955V9.19259C3.33333 10.0842 3.77893 10.9168 4.5208 11.4114L8 13.7309L11.4792 11.4114C12.2211 10.9168 12.6667 10.0842 12.6667 9.19259V3.06955L8 2.03252L3.33333 3.06955ZM8.66667 6.66666H10.6667L7.33333 11.3333V7.99999H5.33333L8.66667 3.33332V6.66666Z" fill="#0C0C0C"/>
</g>
<defs>
<clipPath id="clip0_213_21017">
<rect width="16" height="16" fill="white"/>
</clipPath>
</defs>
</svg>
