<svg width="16" height="16" viewBox="0 0 16 16" fill="none" xmlns="http://www.w3.org/2000/svg">
<path d="M13.3329 14.6652H11.9996V13.3318C11.9996 12.2272 11.1042 11.3318 9.99959 11.3318H5.99959C4.89503 11.3318 3.99959 12.2272 3.99959 13.3318V14.6652H2.66626V13.3318C2.66626 11.4909 4.15865 9.99849 5.99959 9.99849H9.99959C11.8405 9.99849 13.3329 11.4909 13.3329 13.3318V14.6652ZM7.99959 8.66516C5.79045 8.66516 3.99959 6.87429 3.99959 4.66516C3.99959 2.45602 5.79045 0.665161 7.99959 0.665161C10.2087 0.665161 11.9996 2.45602 11.9996 4.66516C11.9996 6.87429 10.2087 8.66516 7.99959 8.66516ZM7.99959 7.33183C9.47233 7.33183 10.6663 6.13792 10.6663 4.66516C10.6663 3.1924 9.47233 1.99849 7.99959 1.99849C6.52683 1.99849 5.33293 3.1924 5.33293 4.66516C5.33293 6.13792 6.52683 7.33183 7.99959 7.33183Z" fill="#6D6D6E"/>
</svg>
