<svg width="14" height="16" viewBox="0 0 14 16" fill="none" xmlns="http://www.w3.org/2000/svg">
<path d="M6.99935 0.665192L13.3327 4.33186V11.6652L6.99935 15.3319L0.666016 11.6652V4.33186L6.99935 0.665192ZM6.99935 2.20586L1.99935 5.1006V10.8965L6.99935 13.7912L11.9993 10.8965V5.1006L6.99935 2.20586ZM6.99935 10.6652C5.52659 10.6652 4.33268 9.47126 4.33268 7.99852C4.33268 6.52576 5.52659 5.33186 6.99935 5.33186C8.47208 5.33186 9.66601 6.52576 9.66601 7.99852C9.66601 9.47126 8.47208 10.6652 6.99935 10.6652ZM6.99935 9.33186C7.73575 9.33186 8.33268 8.73492 8.33268 7.99852C8.33268 7.26212 7.73575 6.66519 6.99935 6.66519C6.26295 6.66519 5.66601 7.26212 5.66601 7.99852C5.66601 8.73492 6.26295 9.33186 6.99935 9.33186Z" fill="#0C0C0C"/>
</svg>
